<svg width="200" height="50" viewBox="0 0 200 50" xmlns="http://www.w3.org/2000/svg">
  <!-- Logo Arka Plan -->
  <defs>
    <linearGradient id="logoGradient" x1="0%" y1="0%" x2="100%" y2="100%">
      <stop offset="0%" style="stop-color:#0ea5e9;stop-opacity:1" />
      <stop offset="100%" style="stop-color:#3b82f6;stop-opacity:1" />
    </linearGradient>
  </defs>
  
  <!-- Kitap Simgesi -->
  <g transform="translate(10, 5)">
    <path d="M25,0 C11.2,0 0,11.2 0,25 C0,38.8 11.2,50 25,50 C38.8,50 50,38.8 50,25 C50,11.2 38.8,0 25,0 Z" fill="url(#logoGradient)" />
    
    <!-- Sayfalar -->
    <path d="M32,12 L18,12 C16.9,12 16,12.9 16,14 L16,36 C16,37.1 16.9,38 18,38 L32,38 C33.1,38 34,37.1 34,36 L34,14 C34,12.9 33.1,12 32,12 Z" fill="white" />
    
    <!-- Sayfa Çizgileri -->
    <path d="M20,18 L30,18 M20,23 L30,23 M20,28 L30,28 M20,33 L25,33" stroke="#0ea5e9" stroke-width="1.5" stroke-linecap="round" />
  </g>
  
  <!-- Metin - Story -->
  <text x="70" y="30" font-family="Arial, sans-serif" font-weight="bold" font-size="22" fill="#0f172a">
    Story<tspan fill="#0ea5e9">Vista</tspan>
  </text>
  
  <!-- Slogan -->
  <text x="70" y="42" font-family="Arial, sans-serif" font-size="8" fill="#64748b">
    Hikayelerle hayal gücüne yolculuk
  </text>
</svg> 